<?xml version="1.0" encoding="utf-8"?>
<!-- Generator: Adobe Illustrator 22.0.1, SVG Export Plug-In . SVG Version: 6.00 Build 0)  -->
<svg version="1.1" id="Capa_1" xmlns="http://www.w3.org/2000/svg" xmlns:xlink="http://www.w3.org/1999/xlink" x="0px" y="0px"
	 viewBox="0 0 400 400" style="enable-background:new 0 0 400 400;" xml:space="preserve">
<style type="text/css">
	.st0{fill:#FFFFFF;}
</style>
<g>
	<path class="st0" d="M0,103.3v168.3c0,16.1,13.1,29.1,29.1,29.1h341.8c16.1,0,29.1-13,29.1-29.1V103.3c0-16.1-13-29.1-29.1-29.1
		H29.1C13.1,74.2,0,87.2,0,103.3z M17.7,228.9v-83.1c0-2.1,3.1-3.8,7-3.8s7,1.7,7,3.8v83.1c0,2.1-3.1,3.8-7,3.8
		S17.7,231.1,17.7,228.9z M371.2,187.4c0,10.2-8.3,18.6-18.6,18.6c-10.3,0-18.6-8.3-18.6-18.6c0-10.2,8.3-18.6,18.6-18.6
		C362.9,168.8,371.2,177.2,371.2,187.4z M307.6,96v182.9H49.2V96H307.6z"/>
</g>
<g>
	<path class="st0" d="M124.6,196.5h9c1.9,21.6,19.2,38.8,40.7,40.7v9c0,2.2,1.8,4.1,4.1,4.1c2.2,0,4.1-1.8,4.1-4.1v-9
		c21.6-1.9,38.8-19.2,40.7-40.7h9c2.2,0,4.1-1.8,4.1-4.1c0-2.2-1.8-4.1-4.1-4.1h-9c-1.9-21.6-19.2-38.8-40.7-40.7v-9
		c0-2.2-1.8-4.1-4.1-4.1c-2.2,0-4.1,1.8-4.1,4.1v9c-21.6,1.9-38.8,19.2-40.7,40.7h-9c-2.3,0-4.1,1.8-4.1,4.1
		S122.4,196.5,124.6,196.5z M158.3,188.3h-16.5c1.9-17.1,15.5-30.7,32.5-32.5v16.5c0,2.2,1.8,4.1,4.1,4.1c2.2,0,4.1-1.8,4.1-4.1
		v-16.5c17.1,1.9,30.7,15.5,32.5,32.5h-16.5c-2.2,0-4.1,1.8-4.1,4.1c0,2.2,1.8,4.1,4.1,4.1H215c-1.9,17.1-15.5,30.7-32.5,32.5v-16.5
		c0-2.2-1.8-4.1-4.1-4.1c-2.2,0-4.1,1.8-4.1,4.1V229c-17.1-1.9-30.7-15.5-32.5-32.5h16.5c2.2,0,4.1-1.8,4.1-4.1
		C162.4,190.2,160.5,188.3,158.3,188.3z"/>
</g>
</svg>
