<?xml version="1.0" encoding="utf-8"?>
<!-- Generator: Adobe Illustrator 22.0.1, SVG Export Plug-In . SVG Version: 6.00 Build 0)  -->
<svg version="1.1" id="Capa_1" xmlns="http://www.w3.org/2000/svg" xmlns:xlink="http://www.w3.org/1999/xlink" x="0px" y="0px"
	 viewBox="0 0 400 400" style="enable-background:new 0 0 400 400;" xml:space="preserve">
<style type="text/css">
	.st0{fill:#FFFFFF;}
</style>
<g>
	<path class="st0" d="M235,322.8c-4.7-3.5-5.2-8.7-5.2-8.7l-1.8-11.2h-56.2l-1.8,11.2c0,0-0.5,5.2-5.2,8.7c-4.7,3.5-8.4,6.4-4.7,6.9
		c3.6,0.5,37.3,0.1,39.7,0c2.5,0.1,36.2,0.5,39.7,0C243.4,329.2,239.7,326.2,235,322.8z"/>
	<g>
		<path class="st0" d="M136.8,232.8c15-0.1,16.9-3.7,21.7-18.8c9-23.8,49.6,6.2,24.5,16.6C157.8,241.1,121.7,233,136.8,232.8z"/>
		<path class="st0" d="M290.5,76.3c-7.3-5.9-19.3-3-27,6.4L186.7,192c-7.6,9.4-7.6,7.7-0.3,13.5c7.2,5.9,5.6,6.3,13.1-3.1l90.4-98.4
			C297.6,94.5,297.8,82.1,290.5,76.3z M270.7,89.3c0,0-1.2-1.3-4.9-4.3c5.6-9.1,16.7-7.5,16.7-7.5C272.1,83.7,270.7,89.3,270.7,89.3
			z"/>
	</g>
	<path class="st0" d="M324.7,113.2h-33.8l-15,16.3h43.4v130.1H80.8V129.4h138.8l11.4-16.3H75.3c-6,0-10.8,4.9-10.8,10.8v157.2
		c0,6,4.9,10.8,10.8,10.8h249.3c6,0,10.8-4.9,10.8-10.8V124C335.5,118.1,330.6,113.2,324.7,113.2z"/>
</g>
</svg>
