<?xml version="1.0" encoding="utf-8"?>
<!-- Generator: Adobe Illustrator 22.0.1, SVG Export Plug-In . SVG Version: 6.00 Build 0)  -->
<svg version="1.1" id="Capa_1" xmlns="http://www.w3.org/2000/svg" xmlns:xlink="http://www.w3.org/1999/xlink" x="0px" y="0px"
	 viewBox="0 0 400 400" style="enable-background:new 0 0 400 400;" xml:space="preserve">
<style type="text/css">
	.st0{fill:#FFFFFF;}
</style>
<g>
	<g>
		<g>
			<path class="st0" d="M259,160c-0.4-1.9-2.1-3.1-4-2.8l-12.3,2.2c-1.4-3.5-3.4-6.7-5.6-9.7l8-9.6c0.6-0.7,0.9-1.6,0.8-2.5
				s-0.5-1.7-1.2-2.3l-10.8-9.1c-0.7-0.6-1.6-0.9-2.5-0.8c-0.9,0.1-1.7,0.5-2.3,1.2l-8,9.6c-3.3-1.7-6.8-3-10.6-3.8v-12.5
				c0-1.9-1.5-3.5-3.4-3.5h-14.1c-1.9,0-3.4,1.5-3.4,3.5v12.5c-3.7,0.9-7.2,2.2-10.6,3.8l-8-9.6c-1.2-1.4-3.4-1.7-4.9-0.4l-10.8,9.1
				c-0.7,0.6-1.2,1.4-1.2,2.3c-0.1,0.9,0.2,1.8,0.8,2.5l8,9.6c-2.2,3-4.1,6.2-5.6,9.7l-12.4-2.2c-1.9-0.4-3.6,0.9-4,2.8l-2.5,13.9
				c-0.1,0.9,0.1,1.8,0.6,2.5c0.5,0.7,1.3,1.2,2.2,1.4l12.4,2.2c0.2,3.8,0.9,7.5,2,11.1l-10.9,6.3c-0.8,0.4-1.4,1.2-1.6,2.1
				c-0.2,0.9-0.1,1.8,0.4,2.6l7,12.2c0.4,0.8,1.2,1.4,2.1,1.6c0.3,0.1,0.6,0.1,0.9,0.1c0.6,0,1.2-0.1,1.7-0.4l10.9-6.3
				c2.5,2.8,5.4,5.1,8.6,7.2l-4.3,11.8c-0.3,0.9-0.3,1.8,0.1,2.6c0.4,0.8,1.1,1.4,2,1.8l13.3,4.9c0.4,0.1,0.8,0.2,1.2,0.2
				c0.5,0,1-0.1,1.4-0.3c0.8-0.4,1.4-1.1,1.8-2l4.3-11.8c1.8,0.2,3.7,0.4,5.6,0.4s3.8-0.1,5.6-0.4l4.3,11.8c0.3,0.9,0.9,1.5,1.8,2
				c0.4,0.2,0.9,0.3,1.4,0.3c0.4,0,0.8-0.1,1.2-0.2l13.3-4.9c0.9-0.3,1.5-0.9,2-1.8c0.4-0.8,0.4-1.7,0.1-2.6l-4.3-11.8
				c3.2-2,6-4.5,8.6-7.2l10.9,6.3c0.5,0.3,1.1,0.4,1.7,0.4c0.3,0,0.6-0.1,0.9-0.1c0.9-0.2,1.7-0.8,2.1-1.6l7-12.2
				c0.4-0.8,0.6-1.7,0.4-2.6c-0.2-0.9-0.8-1.7-1.6-2.1l-10.9-6.3c1.1-3.5,1.7-7.2,2-11.1l12.4-2.2c0.9-0.1,1.7-0.7,2.2-1.4
				c0.5-0.7,0.7-1.7,0.6-2.5L259,160z M200,196c-10.4,0-18.9-8.5-18.9-18.9s8.5-18.9,18.9-18.9c10.4,0,18.9,8.5,18.9,18.9
				S210.4,196,200,196z"/>
			<path class="st0" d="M320.7,74.2H79.3c-13.3,0-24.1,10.9-24.1,24.2v157.4c0,13.3,10.8,24.1,24.1,24.1H157l-14.8,32.6
				c-1.5,3.3-1.2,7.2,0.8,10.4c2,3.1,5.4,5,9.1,5h95.6l0,0c6,0,10.9-4.9,10.9-10.9c0-1.8-0.4-3.5-1.2-5l-14.6-32h77.8
				c13.3,0,24.1-10.8,24.1-24.1V98.4C344.8,85.1,334,74.2,320.7,74.2z M323.1,255.7c0,1.3-1.1,2.4-2.4,2.4H79.3
				c-1.3,0-2.4-1.1-2.4-2.4V98.4c0-1.3,1.1-2.4,2.4-2.4h241.4c1.3,0,2.4,1.1,2.4,2.4V255.7L323.1,255.7z"/>
		</g>
	</g>
</g>
</svg>
